<?xml version="1.0" standalone="no"?>
<!DOCTYPE svg PUBLIC "-//W3C//DTD SVG 20010904//EN"
 "http://www.w3.org/TR/2001/REC-SVG-20010904/DTD/svg10.dtd">
<svg version="1.0" xmlns="http://www.w3.org/2000/svg"
 width="800.000000pt" height="800.000000pt" viewBox="0 0 800.000000 800.000000"
 preserveAspectRatio="xMidYMid meet">

<g transform="translate(0.000000,800.000000) scale(0.100000,-0.100000)"
fill="#000000" stroke="none">
<path d="M1559 7986 c-105 -28 -204 -112 -253 -216 -28 -59 -31 -76 -34 -182
l-4 -118 -542 -1 c-392 0 -551 -3 -576 -12 -63 -22 -99 -110 -69 -170 6 -12
234 -246 507 -519 l497 -498 -508 -508 -507 -507 0 -45 c0 -50 25 -96 62 -116
18 -10 146 -13 580 -14 l558 0 2 -2392 3 -2393 27 -58 c51 -109 137 -184 247
-217 66 -20 85 -20 3076 -18 l3010 3 67 32 c85 40 151 106 191 191 l32 67 3
330 c3 300 2 333 -14 363 -33 61 -109 80 -172 42 -59 -36 -62 -57 -62 -383 0
-289 0 -295 -23 -328 -12 -19 -38 -42 -57 -51 -33 -17 -197 -18 -3000 -18
-2803 0 -2967 1 -3000 18 -19 9 -45 32 -57 51 l-23 34 0 2363 0 2364 420 0
c462 0 464 0 495 60 22 43 19 102 -7 135 -45 57 -8 55 -1010 55 l-923 0 438
438 c317 317 440 446 446 469 20 68 15 75 -444 533 -239 239 -435 438 -435
442 0 5 1225 7 2723 6 l2722 -3 3 -942 2 -943 -1550 0 c-1707 0 -1600 4 -1640
-62 -37 -61 -19 -136 40 -172 26 -15 168 -16 1667 -16 1604 0 1639 0 1670 20
62 37 58 -34 58 1170 0 1040 -1 1107 -18 1133 -9 15 -29 35 -44 44 -26 17
-149 18 -2320 21 l-2293 2 0 89 c0 101 19 143 80 173 33 17 171 18 2457 18
l2422 0 3 -452 3 -453 27 -57 c52 -111 121 -176 231 -217 56 -20 73 -21 497
-21 l440 0 0 -2550 c0 -2773 -4 -2592 55 -2638 53 -42 149 -21 180 38 13 26
15 323 13 2680 l-3 2650 -620 621 c-341 341 -632 627 -647 635 -23 12 -375 14
-2540 13 -1958 0 -2523 -3 -2559 -13z m5610 -1184 c-370 -3 -369 -3 -416 68
-23 33 -23 37 -23 369 l0 336 385 -385 385 -385 -331 -3z"/>
<path d="M1893 6535 c-31 -21 -31 -68 -1 -89 15 -10 44 -16 84 -16 40 0 63 -4
67 -12 8 -22 -12 -424 -23 -452 -12 -32 -33 -33 -84 -3 -42 24 -51 36 -61 80
-11 55 -96 62 -116 9 -33 -85 86 -211 215 -228 89 -13 133 28 160 147 17 75
36 270 36 382 l0 77 55 0 c42 0 60 5 75 20 25 25 25 41 1 71 -19 23 -24 24
-203 27 -155 2 -186 0 -205 -13z"/>
<path d="M3235 6532 c-96 -33 -161 -98 -217 -217 -40 -87 -50 -203 -24 -283
22 -65 81 -126 154 -160 48 -23 71 -27 142 -27 102 0 153 21 223 92 160 162
170 468 19 564 -79 50 -205 63 -297 31z m223 -129 c42 -31 56 -70 55 -148 -1
-120 -64 -239 -147 -279 -100 -47 -243 18 -262 119 -21 113 60 276 160 321 44
21 160 13 194 -13z"/>
<path d="M3734 6528 c-19 -22 -20 -37 -18 -347 1 -301 3 -325 20 -338 26 -19
58 -16 80 8 17 19 19 43 24 241 l5 220 24 -34 c96 -131 332 -384 384 -413 44
-23 84 -14 99 23 7 17 11 126 12 302 1 256 0 278 -19 315 -24 49 -62 58 -96
24 -18 -18 -20 -28 -15 -63 4 -22 9 -131 12 -241 l6 -200 -62 60 c-78 76 -193
212 -283 335 -38 52 -78 103 -89 113 -28 23 -61 21 -84 -5z"/>
<path d="M2602 6491 c-137 -47 -225 -185 -172 -269 30 -48 90 -71 216 -82 131
-12 156 -25 152 -78 -3 -34 -8 -40 -56 -64 -59 -30 -143 -44 -198 -33 -25 4
-48 19 -72 46 -40 44 -71 50 -103 18 -43 -43 -8 -117 76 -162 57 -31 233 -30
319 1 117 43 166 101 166 195 0 126 -71 183 -244 197 -111 9 -132 15 -140 36
-9 24 5 44 48 66 45 24 116 28 202 14 46 -7 54 -6 73 13 11 11 21 28 21 36 0
25 -39 52 -99 69 -74 21 -123 20 -189 -3z"/>
<path d="M3079 4121 c-151 -21 -280 -132 -323 -280 -14 -46 -16 -124 -16 -520
l0 -465 -129 -130 c-188 -192 -188 -199 0 -391 l129 -132 0 -465 c0 -395 2
-473 16 -519 32 -108 110 -199 213 -248 56 -26 58 -26 332 -29 l276 -3 31 26
c18 15 37 44 43 65 10 32 9 44 -7 76 -38 77 -45 78 -322 84 -217 4 -250 7
-274 23 -58 40 -58 39 -58 575 0 319 -4 501 -11 519 -5 15 -54 72 -107 126
l-97 97 97 98 c53 53 102 110 107 125 7 18 11 200 11 519 0 542 0 540 64 579
28 17 54 19 246 19 118 0 232 4 253 9 49 12 84 44 98 92 10 31 9 43 -7 75 -38
76 -48 79 -292 81 -119 0 -242 -2 -273 -6z"/>
<path d="M5642 4120 c-129 -30 -126 -210 5 -241 21 -5 134 -9 251 -9 236 0
257 -4 292 -63 19 -31 20 -54 20 -529 0 -322 4 -506 10 -524 6 -15 54 -72 107
-126 l97 -98 -97 -98 c-53 -54 -101 -111 -107 -126 -6 -18 -10 -202 -10 -524
0 -475 -1 -498 -20 -529 -35 -59 -55 -63 -297 -63 -120 0 -233 -4 -252 -10
-100 -28 -128 -149 -49 -215 l31 -26 276 3 277 3 65 32 c80 39 150 111 187
191 l27 57 3 490 3 489 128 131 c135 137 150 162 135 227 -5 24 -43 70 -135
163 l-128 131 -3 490 -3 489 -32 66 c-59 119 -172 200 -306 220 -75 10 -429
10 -475 -1z"/>
<path d="M3610 1972 c-77 -38 -91 -140 -26 -199 31 -29 42 -33 92 -33 50 0 59
3 89 33 44 44 54 94 28 143 -35 67 -113 91 -183 56z"/>
<path d="M4554 1976 c-47 -21 -74 -61 -74 -113 0 -76 50 -123 130 -123 85 0
137 55 127 137 -5 50 -28 80 -74 99 -40 17 -69 17 -109 0z"/>
<path d="M5483 1975 c-59 -26 -89 -106 -59 -163 27 -51 62 -72 123 -72 49 0
59 4 88 33 106 106 -13 263 -152 202z"/>
</g>
</svg>
